<svg xmlns="http://www.w3.org/2000/svg" width="16" height="16" viewBox="0 0 16 16">
    <path fill="#EDEDED" fill-rule="evenodd" d="M8.715 16c-1.147-.027-2.15-.31-2.988-.84-.015-.01-.088-.073-.102-.084a.358.358 0 0 0-.091-.051.416.416 0 0 1-.065-.039 4.83 4.83 0 0 1-1.035-1.043l-3.37-6.44c-.194-.518.07-1.047.584-1.239.549-.164 1.118.089 1.291.558l1.392 2.622c.021.043.107.086.204.07.034-.011.073-.055.073-.078V2.597c0-.517.47-.952 1.024-.952.556 0 1.026.435 1.026.952v3.546c-.002.27.298.192.298.08V6.13c0-5.228.002-5.246.005-5.267C7.005.384 7.453 0 7.981 0c.554 0 1.024.436 1.024.952v5.901c0 .115.298.115.298 0 0-.047 0-4.777.003-4.815.044-.878.755-.878 1.023-.878.443 0 .832.277.97.652a.324.324 0 0 1 .054.178v5.497c0 .112.298.112.3 0 0-.037 0-3.612.003-3.662.049-.857.631-.848.963-.853.613 0 1.083.437 1.083.952v7.778C13.572 14.12 11.382 16 8.715 16"/>
</svg>
