<svg xmlns="http://www.w3.org/2000/svg" width="12" height="12" viewBox="0 0 12 12">
    <path fill="#44474B" fill-rule="nonzero" d="M9.374 9.996a.6.6 0 0 1-.44-.192L6 6.87 3.065 9.804a.614.614 0 0 1-.44.192.614.614 0 0 1-.44-.192.604.604 0 0 1 0-.871l2.943-2.935-2.934-2.935a.614.614 0 0 1-.192-.44c0-.16.064-.311.192-.431A.584.584 0 0 1 2.626 2a.6.6 0 0 1 .44.192L6 5.126l2.935-2.934A.614.614 0 0 1 9.375 2c.16 0 .311.064.44.192a.604.604 0 0 1 0 .871L6.871 5.998l2.934 2.935c.256.255.256.623 0 .871a.584.584 0 0 1-.432.192z"/>
</svg>
