<svg width="20" height="20" viewBox="0 0 20 20" fill="none" xmlns="http://www.w3.org/2000/svg">
<path fill-rule="evenodd" clip-rule="evenodd" d="M4.48801 5.795C4.65612 3.67112 6.43291 2 8.6 2H11.9C14.0671 2 15.8439 3.67112 16.012 5.795H16.6221C17.6568 5.795 18.4963 6.64559 18.5 7.68975V10.8669C17.9357 10.8669 17.3723 10.8655 16.8089 10.8641C16.2456 10.8627 15.6822 10.8613 15.1179 10.8613C15.1105 10.409 14.7441 10.0405 14.2949 10.0405C13.8457 10.0405 13.4793 10.409 13.4719 10.8613H7.0299C7.02254 10.409 6.65616 10.0405 6.20693 10.0405C5.7577 10.0405 5.39132 10.409 5.38395 10.8613C4.81966 10.8613 4.25628 10.8632 3.6929 10.865C3.12952 10.8669 2.56614 10.8688 2.00184 10.8688V11.9874C2.56476 11.9874 3.12676 11.9878 3.68922 11.9883C4.2526 11.9888 4.81643 11.9892 5.38211 11.9892V12.8101C5.38211 13.2679 5.75218 13.642 6.20509 13.642C6.658 13.642 7.02806 13.2679 7.02806 12.8101V11.9892H13.4701V12.8101C13.4701 13.2679 13.8402 13.642 14.2931 13.642C14.746 13.642 15.116 13.2679 15.116 12.8101V11.9892C15.6803 11.9892 16.2433 11.9883 16.8062 11.9874C17.3691 11.9865 17.932 11.9855 18.4963 11.9855V16.0002C18.4963 17.0463 17.6549 17.895 16.6221 17.895H3.87425C2.84139 17.895 2 17.0444 2 16.0002V7.68975C2 6.64559 2.84139 5.795 3.87425 5.795H4.48801ZM6.14678 5.79522C6.30802 4.58422 7.34491 3.65 8.6 3.65H11.9C13.1551 3.65 14.192 4.58422 14.3532 5.79521L13.367 5.79686H7.12932L6.14678 5.79522Z" fill="#E2EBFF"/>
</svg>
