<svg xmlns="http://www.w3.org/2000/svg" width="18" height="18" viewBox="0 0 18 18" fill="none">
<path d="M15.209 0C16.2443 0.000175454 17.0838 0.839733 17.084 1.875V15.209C17.0838 16.2443 16.2443 17.0838 15.209 17.084H1.875C0.839733 17.0838 0.000175455 16.2443 0 15.209V1.875C0.000175909 0.839726 0.839726 0.000175909 1.875 0H15.209ZM13.9844 3.10059C13.7403 2.85651 13.3447 2.85651 13.1006 3.10059L3.10059 13.1006C2.85651 13.3447 2.85651 13.7403 3.10059 13.9844C3.3447 14.228 3.74046 14.2283 3.98438 13.9844L13.9844 3.98438C14.2283 3.74046 14.228 3.3447 13.9844 3.10059ZM9.79199 11.667C9.44681 11.667 9.16699 11.9468 9.16699 12.292C9.16699 12.6372 9.44681 12.917 9.79199 12.917H13.125C13.4702 12.917 13.75 12.6372 13.75 12.292C13.75 11.9468 13.4702 11.667 13.125 11.667H9.79199ZM5.20898 2.91699C4.86381 2.91699 4.58398 3.19681 4.58398 3.54199V4.58398H3.54199C3.19681 4.58398 2.91699 4.86381 2.91699 5.20898C2.91717 5.55401 3.19692 5.83398 3.54199 5.83398H4.58398V6.875C4.58398 7.22018 4.86381 7.5 5.20898 7.5C5.55401 7.49982 5.83398 7.22007 5.83398 6.875V5.83398H6.875C7.22007 5.83398 7.49982 5.55401 7.5 5.20898C7.5 4.86381 7.22018 4.58398 6.875 4.58398H5.83398V3.54199C5.83398 3.19692 5.55401 2.91717 5.20898 2.91699Z" fill="#E2EBFF"/>
</svg>