<?xml version="1.0" standalone="no"?><!DOCTYPE svg PUBLIC "-//W3C//DTD SVG 1.1//EN" "http://www.w3.org/Graphics/SVG/1.1/DTD/svg11.dtd"><svg t="1709722411898" class="icon" viewBox="0 0 1024 1024" version="1.1" xmlns="http://www.w3.org/2000/svg" p-id="11380" xmlns:xlink="http://www.w3.org/1999/xlink" width="200" height="200"><path d="M511.952457 1024a512.535161 512.535161 0 0 1-511.998781-511.998781 508.585456 508.585456 0 0 1 149.9425-362.105043A508.43917 508.43917 0 0 1 511.952457 0.002438a508.43917 508.43917 0 0 1 362.007519 149.9425 508.585456 508.585456 0 0 1 149.991262 362.056281 512.535161 512.535161 0 0 1-511.998781 511.998781zM295.547639 455.388782a41.106188 41.106188 0 0 0-25.404892 10.532547 35.303535 35.303535 0 0 0-14.140918 25.35613 33.548111 33.548111 0 0 0 10.532546 25.599939l167.594268 182.271566a33.353063 33.353063 0 0 0 25.551177 10.971402 41.886376 41.886376 0 0 0 29.257073-10.971402l306.028986-328.069314a42.666565 42.666565 0 0 0 7.411792-30.768689 29.842215 29.842215 0 0 0-11.020165-20.18738 39.009431 39.009431 0 0 0-23.551944-7.801887 39.009431 39.009431 0 0 0-27.501648 11.361497l-276.918198 298.909765-142.140614-153.160778a32.621637 32.621637 0 0 0-25.697463-14.043396z" fill="#32BB53" p-id="11381"></path></svg>