<svg width="20" height="20" viewBox="0 0 20 20" fill="none" xmlns="http://www.w3.org/2000/svg">
<path fill-rule="evenodd" clip-rule="evenodd" d="M2.89265 6.59218C2.22797 7.06969 1.89427 7.87306 2.02978 8.66953L3.14286 15.212C3.3184 16.2438 4.22967 17 5.29745 17H14.7025C15.7703 17 16.6816 16.2438 16.8571 15.212L17.9702 8.66953C18.1057 7.87306 17.772 7.06969 17.1074 6.59218L11.2917 2.41426C10.5229 1.86191 9.47714 1.86191 8.70828 2.41426L2.89265 6.59218ZM9.94579 11.6505C9.49341 11.6505 9.12668 12.0097 9.12668 12.4529V15.1277C9.12668 15.5708 9.49341 15.9301 9.94579 15.9301C10.3982 15.9301 10.7649 15.5708 10.7649 15.1277V12.4529C10.7649 12.0097 10.3982 11.6505 9.94579 11.6505Z" fill="#E2EBFF"/>
</svg>
