<svg xmlns="http://www.w3.org/2000/svg" width="16" height="18" viewBox="0 0 16 18" fill="none">
  <path d="M12.291 0C12.6361 0 12.9158 0.279972 12.916 0.625V11.459C12.9158 11.804 12.6361 12.084 12.291 12.084H3.125C2.37181 12.084 1.71929 12.5325 1.42188 13.1777C1.36324 13.3054 1.31695 13.4399 1.28809 13.5811C1.26302 13.703 1.25 13.8296 1.25 13.959C1.25018 14.9944 2.08957 15.834 3.125 15.834H14.166V1.45898C14.166 1.11392 14.446 0.834161 14.791 0.833984C15.1362 0.833984 15.416 1.11381 15.416 1.45898V16.459C15.4158 16.804 15.1361 17.084 14.791 17.084H3.125C1.45293 17.084 0.0874431 15.7704 0.00390625 14.1191L0 13.959V3.125C0.000175894 1.39926 1.39922 0 3.125 0H12.291ZM11.875 13.334C12.22 13.3342 12.5 13.6139 12.5 13.959C12.4998 14.3039 12.2199 14.5838 11.875 14.584H3.54102C3.1961 14.5838 2.91619 14.3039 2.91602 13.959C2.91602 13.6139 3.19599 13.3342 3.54102 13.334H11.875ZM3.125 1.25C2.08957 1.25 1.25018 2.08962 1.25 3.125V11.459C1.27238 11.4422 1.29552 11.4264 1.31836 11.4102C1.34928 11.3882 1.38037 11.3665 1.41211 11.3457C1.46237 11.3127 1.5142 11.2821 1.56641 11.252C1.5957 11.2351 1.62442 11.2171 1.6543 11.2012C1.73063 11.1603 1.80876 11.1224 1.88867 11.0879C1.95896 11.0576 2.03067 11.0301 2.10352 11.0049C2.11557 11.0007 2.12753 10.9962 2.13965 10.9922C2.2797 10.9457 2.4242 10.9092 2.57227 10.8828C2.58464 10.8806 2.59696 10.878 2.60938 10.876L2.64844 10.8701C2.71611 10.8598 2.78448 10.8516 2.85352 10.8457C2.86197 10.845 2.87044 10.8444 2.87891 10.8438C2.96001 10.8374 3.04227 10.834 3.125 10.834H11.666V1.25H3.125Z" fill="#E2EBFF"/>
</svg>