<svg width="20" height="20" viewBox="0 0 20 20" fill="none" xmlns="http://www.w3.org/2000/svg">
<path d="M7.64683 9.41164C8.62145 9.41164 9.41154 8.62156 9.41154 7.64694C9.41154 6.67232 8.62145 5.88223 7.64683 5.88223C6.67221 5.88223 5.88212 6.67232 5.88212 7.64694C5.88212 8.62156 6.67221 9.41164 7.64683 9.41164Z" fill="#E2EBFF"/>
<path fill-rule="evenodd" clip-rule="evenodd" d="M14.0015 3.29909V11.7116C14.0015 12.1577 13.8238 12.5857 13.5082 12.9012C13.1927 13.2167 12.7648 13.3939 12.3186 13.3939H3.907C3.4608 13.3939 3.03288 13.2167 2.71737 12.9012C2.40186 12.5857 2.22461 12.1577 2.22461 11.7116V3.29909C2.22461 2.85289 2.40186 2.42497 2.71737 2.10946C3.03288 1.79395 3.4608 1.6167 3.907 1.6167H12.3186C12.5396 1.61663 12.7584 1.6601 12.9626 1.74462C13.1668 1.82914 13.3523 1.95305 13.5086 2.10928C13.6649 2.26551 13.7888 2.451 13.8734 2.65515C13.958 2.8593 14.0015 3.07811 14.0015 3.29909ZM7.64683 10.5881C8.24626 10.5881 8.8038 10.4088 9.26875 10.1009L10.4598 11.2919C10.6895 11.5217 11.062 11.5217 11.2917 11.2919C11.5214 11.0622 11.5214 10.6898 11.2917 10.46L10.1007 9.26901C10.4086 8.80403 10.588 8.24643 10.588 7.64694C10.588 6.02257 9.2712 4.70576 7.64683 4.70576C6.02246 4.70576 4.70565 6.02257 4.70565 7.64694C4.70565 9.2713 6.02246 10.5881 7.64683 10.5881Z" fill="#E2EBFF"/>
<path d="M15.1951 4.9927H16.0363C16.2573 4.9927 16.4761 5.03623 16.6802 5.12079C16.8843 5.20534 17.0698 5.32928 17.226 5.48552C17.3823 5.64177 17.5062 5.82725 17.5907 6.03139C17.6752 6.23553 17.7188 6.45432 17.7187 6.67526V15.4294C17.7188 15.6504 17.6752 15.8692 17.5907 16.0733C17.5062 16.2775 17.3823 16.4629 17.226 16.6192C17.0698 16.7754 16.8843 16.8994 16.6802 16.9839C16.4761 17.0685 16.2573 17.112 16.0363 17.112H7.41432C7.5154 17.3823 7.20374 17.2131 6.96055 17.081C6.8862 17.0406 6.81825 17.0037 6.77045 16.9839C6.56633 16.8994 6.38086 16.7754 6.22463 16.6192C6.0684 16.4629 5.94448 16.2775 5.85994 16.0733C5.7754 15.8692 5.7319 15.6504 5.73193 15.4294V14.5882H13.5127C14.4311 14.5882 15.1951 14.1175 15.1951 12.9058V4.9927Z" fill="#E2EBFF"/>
</svg>
