<svg width="20" height="20" viewBox="0 0 20 20" fill="none" xmlns="http://www.w3.org/2000/svg">
<path fill-rule="evenodd" clip-rule="evenodd" d="M9.9998 1.76465C5.1267 1.76465 1.17627 5.71508 1.17627 10.5882C1.17627 15.4613 5.1267 19.4117 9.9998 19.4117C14.8729 19.4117 18.8233 15.4613 18.8233 10.5882C18.8233 5.71508 14.8729 1.76465 9.9998 1.76465ZM14.4596 9.14067C14.7972 8.78927 14.786 8.23071 14.4346 7.89309C14.0832 7.55547 13.5247 7.56664 13.1871 7.91804L10.4323 10.7852L8.01018 8.2642L4.95177 11.4474C4.61415 11.7989 4.62532 12.3574 4.97672 12.695C5.32812 13.0327 5.88668 13.0215 6.2243 12.6701L8.01018 10.8113L10.4323 13.3323L14.4596 9.14067Z" fill="#E2EBFF"/>
</svg>
