<svg width="20" height="20" viewBox="0 0 20 20" fill="none" xmlns="http://www.w3.org/2000/svg">
<path d="M17.2919 6.70712C17.7649 6.23417 17.7649 5.4791 17.2919 5.00614L14.9935 2.70774C14.5288 2.23479 13.7655 2.23479 13.2925 2.70774L10.9526 5.04763L14.952 9.0553L17.2919 6.70712Z" fill="#E2EBFF"/>
<path d="M3.9254 12.0755C3.68477 12.3162 3.50223 12.6232 3.39436 12.9468L2.40696 16.5645C2.2742 16.9959 2.51483 17.4523 2.9463 17.5934C3.10395 17.6431 3.27819 17.6431 3.43585 17.5934L7.05354 16.606C7.38544 16.4981 7.68415 16.3238 7.93307 16.0749L8.8375 15.1705L4.83812 11.1628L3.9254 12.0755ZM6.77143 2.97323C6.26528 2.45879 5.42724 2.45879 4.9128 2.97323L4.9045 2.98153L2.73886 5.14717C2.22442 5.66161 2.22442 6.49136 2.73886 7.0058L3.76775 8.04298L5.67616 6.12627C5.93338 5.86905 6.34826 5.86905 6.60548 6.12627C6.8627 6.38349 6.8627 6.79836 6.60548 7.05558L4.69706 8.9557L5.62638 9.88502L6.76313 8.74827C7.01205 8.49104 7.42693 8.48275 7.68415 8.73997L7.69245 8.74827C7.94967 9.00549 7.94967 9.42036 7.69245 9.67758L6.56399 10.8143L7.49331 11.7436L9.39343 9.83523C9.65065 9.57801 10.0655 9.57801 10.3227 9.83523C10.58 10.0925 10.58 10.5073 10.3227 10.7645L8.39773 12.6564L9.33534 13.6023L9.34364 13.594L10.4638 12.4655C10.721 12.2083 11.1359 12.2083 11.3931 12.4655C11.6503 12.7227 11.6503 13.1376 11.3931 13.3948L10.2647 14.515L10.2564 14.5233L11.1857 15.4526L13.0858 13.5525C13.343 13.2953 13.7579 13.2953 14.0151 13.5525C14.2723 13.8097 14.2723 14.2246 14.0151 14.4818L12.1067 16.3736L13.2186 17.4855C13.733 17.9999 14.5627 17.9999 15.0772 17.4938L15.0855 17.4855L17.2594 15.3116C17.7739 14.7971 17.7739 13.9674 17.2594 13.4529L6.77143 2.97323Z" fill="#E2EBFF"/>
</svg>
