<svg xmlns="http://www.w3.org/2000/svg" width="20" height="20" viewBox="0 0 20 20" fill="none">
  <path fill-rule="evenodd" clip-rule="evenodd" d="M14.1671 2.29199C14.3884 2.29217 14.593 2.40983 14.7052 2.60059L18.8722 9.68359C18.9869 9.87896 18.9869 10.121 18.8722 10.3164L14.7052 17.4004C14.593 17.5909 14.3882 17.7078 14.1671 17.708H5.83315C5.61205 17.7079 5.40737 17.5908 5.29507 17.4004L1.12808 10.3164C1.0133 10.121 1.0133 9.87901 1.12808 9.68359L5.29507 2.60059C5.40731 2.40983 5.61184 2.29212 5.83315 2.29199H14.1671ZM10.0001 7.29199C8.50441 7.29202 7.29214 8.50426 7.29214 10C7.29214 11.4957 8.50441 12.708 10.0001 12.708C11.4959 12.708 12.7082 11.4958 12.7082 10C12.7082 8.50424 11.4959 7.29199 10.0001 7.29199Z" fill="#E2EBFF"/>
</svg>